<svg xmlns="http://www.w3.org/2000/svg" xmlns:xlink="http://www.w3.org/1999/xlink" width="500" zoomAndPan="magnify" viewBox="0 0 375 299.999988" height="400" preserveAspectRatio="xMidYMid meet" version="1.0"><defs><g/><clipPath id="id1"><path d="M 15 55.824219 L 56.046875 55.824219 L 56.046875 267.324219 L 15 267.324219 Z M 15 55.824219 " clip-rule="nonzero"/></clipPath><clipPath id="id2"><path d="M 101 30 L 283.054688 30 L 283.054688 148.5 L 101 148.5 Z M 101 30 " clip-rule="nonzero"/></clipPath><clipPath id="id3"><path d="M 318.949219 55.601562 L 360 55.601562 L 360 267 L 318.949219 267 Z M 318.949219 55.601562 " clip-rule="nonzero"/></clipPath></defs><g clip-path="url(#id1)"><path fill="rgb(92.158508%, 92.158508%, 92.158508%)" d="M 52.84375 267.207031 L 50.839844 267.207031 C 38.246094 267.207031 28 256.894531 28 244.226562 L 28 175.878906 L 16.050781 163.855469 C 14.800781 162.597656 14.800781 160.554688 16.050781 159.296875 L 28 147.269531 L 28 78.925781 C 28 66.253906 38.246094 55.945312 50.839844 55.945312 L 52.84375 55.945312 C 54.613281 55.945312 56.050781 57.390625 56.050781 59.171875 C 56.050781 60.953125 54.613281 62.394531 52.84375 62.394531 L 50.839844 62.394531 C 41.78125 62.394531 34.414062 69.8125 34.414062 78.925781 L 34.414062 148.605469 C 34.414062 149.460938 34.074219 150.28125 33.472656 150.886719 L 22.851562 161.574219 L 33.472656 172.261719 C 34.074219 172.867188 34.414062 173.6875 34.414062 174.542969 L 34.414062 244.226562 C 34.414062 253.339844 41.78125 260.753906 50.839844 260.753906 L 52.84375 260.753906 C 54.613281 260.753906 56.050781 262.199219 56.050781 263.980469 C 56.050781 265.761719 54.613281 267.207031 52.84375 267.207031 " fill-opacity="1" fill-rule="nonzero"/></g><g fill="rgb(92.158508%, 92.158508%, 92.158508%)" fill-opacity="1"><g transform="translate(117.35916, 246.111746)"><g><path d="M 70.96875 -73.1875 L 70.96875 0 L 53.890625 0 L 53.890625 -30.9375 L 24.15625 -30.9375 L 24.15625 0 L 7.078125 0 L 7.078125 -73.1875 L 24.15625 -73.1875 L 24.15625 -42.59375 L 53.890625 -42.59375 L 53.890625 -73.1875 Z M 70.96875 -73.1875 "/></g></g></g><g fill="rgb(92.158508%, 92.158508%, 92.158508%)" fill-opacity="1"><g transform="translate(195.404005, 246.111746)"><g><path d="M 45.75 -27.96875 L 38.96875 -48.015625 C 38.46875 -49.285156 37.929688 -50.78125 37.359375 -52.5 C 36.796875 -54.226562 36.226562 -56.097656 35.65625 -58.109375 C 35.15625 -56.066406 34.617188 -54.175781 34.046875 -52.4375 C 33.484375 -50.695312 32.953125 -49.191406 32.453125 -47.921875 L 25.71875 -27.96875 Z M 72.734375 0 L 59.5625 0 C 58.09375 0 56.90625 -0.34375 56 -1.03125 C 55.09375 -1.71875 54.40625 -2.597656 53.9375 -3.671875 L 49.625 -16.421875 L 21.796875 -16.421875 L 17.484375 -3.671875 C 17.109375 -2.734375 16.441406 -1.882812 15.484375 -1.125 C 14.535156 -0.375 13.359375 0 11.953125 0 L -1.3125 0 L 27.015625 -73.1875 L 44.40625 -73.1875 Z M 72.734375 0 "/></g></g></g><g clip-path="url(#id2)"><path fill="rgb(92.158508%, 92.158508%, 92.158508%)" d="M 244.492188 128.882812 L 192.859375 148.027344 L 141.226562 128.882812 L 141.226562 88.671875 L 191.242188 107.222656 C 191.765625 107.410156 192.304688 107.503906 192.859375 107.507812 C 193.414062 107.507812 193.953125 107.410156 194.476562 107.222656 L 244.492188 88.671875 Z M 248.035156 77.425781 C 247.863281 77.4375 247.695312 77.453125 247.523438 77.484375 L 192.859375 97.761719 L 138.195312 77.484375 C 138.023438 77.457031 137.855469 77.4375 137.683594 77.425781 L 101.984375 64.183594 L 192.859375 30.472656 L 283.734375 64.183594 Z M 248.035156 77.425781 " fill-opacity="1" fill-rule="nonzero"/></g><path fill="rgb(92.158508%, 92.158508%, 92.158508%)" d="M 113.003906 131.785156 C 112.699219 131.785156 112.398438 131.757812 112.097656 131.699219 C 111.796875 131.636719 111.507812 131.550781 111.226562 131.433594 C 110.941406 131.316406 110.675781 131.171875 110.421875 131.003906 C 110.167969 130.832031 109.933594 130.640625 109.71875 130.425781 C 109.5 130.207031 109.308594 129.972656 109.136719 129.71875 C 108.96875 129.464844 108.824219 129.199219 108.710938 128.914062 C 108.59375 128.632812 108.503906 128.34375 108.445312 128.042969 C 108.386719 127.742188 108.355469 127.441406 108.355469 127.136719 L 108.355469 89.445312 C 108.355469 89.140625 108.386719 88.835938 108.445312 88.539062 C 108.503906 88.238281 108.59375 87.949219 108.710938 87.664062 C 108.824219 87.382812 108.96875 87.117188 109.136719 86.863281 C 109.308594 86.609375 109.5 86.371094 109.71875 86.15625 C 109.933594 85.941406 110.167969 85.746094 110.421875 85.578125 C 110.675781 85.410156 110.941406 85.265625 111.226562 85.148438 C 111.507812 85.03125 111.796875 84.945312 112.097656 84.882812 C 112.398438 84.824219 112.699219 84.792969 113.003906 84.792969 C 113.308594 84.792969 113.613281 84.824219 113.910156 84.882812 C 114.210938 84.945312 114.5 85.03125 114.785156 85.148438 C 115.066406 85.265625 115.332031 85.410156 115.585938 85.578125 C 115.839844 85.746094 116.074219 85.941406 116.292969 86.15625 C 116.507812 86.371094 116.699219 86.609375 116.871094 86.863281 C 117.039062 87.117188 117.183594 87.382812 117.300781 87.664062 C 117.417969 87.949219 117.503906 88.238281 117.5625 88.539062 C 117.625 88.835938 117.652344 89.140625 117.652344 89.445312 L 117.652344 127.136719 C 117.652344 127.441406 117.625 127.742188 117.5625 128.042969 C 117.503906 128.34375 117.417969 128.632812 117.300781 128.914062 C 117.183594 129.199219 117.039062 129.464844 116.871094 129.71875 C 116.699219 129.972656 116.507812 130.207031 116.292969 130.425781 C 116.074219 130.640625 115.839844 130.832031 115.585938 131.003906 C 115.332031 131.171875 115.066406 131.316406 114.785156 131.433594 C 114.5 131.550781 114.210938 131.636719 113.910156 131.699219 C 113.613281 131.757812 113.308594 131.785156 113.003906 131.785156 Z M 113.003906 131.785156 " fill-opacity="1" fill-rule="nonzero"/><path fill="rgb(92.158508%, 92.158508%, 92.158508%)" d="M 113.003906 131.785156 C 112.277344 131.785156 111.558594 131.714844 110.847656 131.574219 C 110.136719 131.433594 109.445312 131.222656 108.777344 130.945312 C 108.105469 130.667969 107.46875 130.328125 106.867188 129.921875 C 106.261719 129.519531 105.703125 129.0625 105.191406 128.546875 C 104.679688 128.035156 104.21875 127.476562 103.816406 126.871094 C 103.414062 126.269531 103.074219 125.632812 102.796875 124.960938 C 102.519531 124.289062 102.308594 123.597656 102.167969 122.886719 C 102.027344 122.175781 101.957031 121.457031 101.957031 120.730469 C 101.957031 120.003906 102.03125 119.285156 102.171875 118.574219 C 102.3125 117.863281 102.523438 117.171875 102.800781 116.5 C 103.078125 115.828125 103.421875 115.191406 103.824219 114.589844 C 104.226562 113.988281 104.6875 113.429688 105.199219 112.914062 C 105.714844 112.402344 106.273438 111.945312 106.875 111.542969 C 107.480469 111.140625 108.117188 110.800781 108.785156 110.523438 C 109.457031 110.246094 110.148438 110.035156 110.859375 109.894531 C 111.574219 109.753906 112.292969 109.683594 113.015625 109.6875 C 113.742188 109.6875 114.460938 109.757812 115.171875 109.902344 C 115.882812 110.042969 116.574219 110.253906 117.246094 110.53125 C 117.914062 110.8125 118.550781 111.152344 119.152344 111.554688 C 119.757812 111.960938 120.3125 112.417969 120.828125 112.933594 C 121.339844 113.449219 121.796875 114.007812 122.199219 114.609375 C 122.601562 115.214844 122.941406 115.851562 123.214844 116.523438 C 123.492188 117.195312 123.703125 117.886719 123.84375 118.597656 C 123.984375 119.308594 124.050781 120.027344 124.050781 120.753906 C 124.050781 121.480469 123.980469 122.199219 123.839844 122.910156 C 123.695312 123.621094 123.488281 124.3125 123.210938 124.980469 C 122.933594 125.652344 122.589844 126.285156 122.1875 126.890625 C 121.785156 127.492188 121.328125 128.050781 120.8125 128.5625 C 120.300781 129.074219 119.742188 129.53125 119.140625 129.933594 C 118.535156 130.335938 117.898438 130.675781 117.230469 130.953125 C 116.558594 131.230469 115.871094 131.4375 115.160156 131.578125 C 114.449219 131.71875 113.730469 131.789062 113.003906 131.785156 Z M 113.003906 118.996094 C 112.773438 119 112.550781 119.046875 112.339844 119.136719 C 112.128906 119.226562 111.941406 119.355469 111.78125 119.519531 C 111.617188 119.683594 111.496094 119.875 111.410156 120.085938 C 111.324219 120.300781 111.28125 120.523438 111.285156 120.753906 C 111.285156 122.671875 114.753906 122.617188 114.753906 120.753906 C 114.75 120.523438 114.703125 120.300781 114.613281 120.089844 C 114.523438 119.878906 114.398438 119.691406 114.234375 119.527344 C 114.070312 119.363281 113.882812 119.238281 113.667969 119.148438 C 113.457031 119.0625 113.234375 119.015625 113.003906 119.015625 Z M 113.003906 118.996094 " fill-opacity="1" fill-rule="nonzero"/><g clip-path="url(#id3)"><path fill="rgb(92.158508%, 92.158508%, 92.158508%)" d="M 322.152344 55.722656 L 324.15625 55.722656 C 336.75 55.722656 346.996094 66.03125 346.996094 78.703125 L 346.996094 147.046875 L 358.945312 159.070312 C 360.195312 160.332031 360.195312 162.375 358.945312 163.632812 L 346.996094 175.65625 L 346.996094 244 C 346.996094 256.671875 336.75 266.980469 324.15625 266.980469 L 322.152344 266.980469 C 320.382812 266.980469 318.945312 265.539062 318.945312 263.757812 C 318.945312 261.976562 320.382812 260.53125 322.152344 260.53125 L 324.15625 260.53125 C 333.214844 260.53125 340.585938 253.117188 340.585938 244 L 340.585938 174.320312 C 340.585938 173.464844 340.921875 172.644531 341.523438 172.039062 L 352.144531 161.351562 L 341.523438 150.664062 C 340.921875 150.058594 340.585938 149.238281 340.585938 148.382812 L 340.585938 78.703125 C 340.585938 69.589844 333.214844 62.171875 324.15625 62.171875 L 322.152344 62.171875 C 320.382812 62.171875 318.945312 60.726562 318.945312 58.949219 C 318.945312 57.167969 320.382812 55.722656 322.152344 55.722656 " fill-opacity="1" fill-rule="nonzero"/></g></svg>