<svg xmlns="http://www.w3.org/2000/svg" xmlns:xlink="http://www.w3.org/1999/xlink" width="500" zoomAndPan="magnify" viewBox="0 0 375 187.499995" height="250" preserveAspectRatio="xMidYMid meet" version="1.0"><defs><g/><clipPath id="id1"><path d="M 18.75 47.507812 L 38.949219 47.507812 L 38.949219 149.234375 L 18.75 149.234375 Z M 18.75 47.507812 " clip-rule="nonzero"/></clipPath><clipPath id="id2"><path d="M 207 30.011719 L 294.425781 30.011719 L 294.425781 86.859375 L 207 86.859375 Z M 207 30.011719 " clip-rule="nonzero"/></clipPath><clipPath id="id3"><path d="M 335.601562 47.390625 L 355.796875 47.390625 L 355.796875 149.117188 L 335.601562 149.117188 Z M 335.601562 47.390625 " clip-rule="nonzero"/></clipPath></defs><g clip-path="url(#id1)"><path fill="rgb(92.158508%, 92.158508%, 92.158508%)" d="M 37.378906 149.175781 L 36.398438 149.175781 C 30.230469 149.175781 25.214844 144.214844 25.214844 138.121094 L 25.214844 105.25 L 19.367188 99.46875 C 18.753906 98.863281 18.753906 97.878906 19.367188 97.273438 L 25.214844 91.492188 L 25.214844 58.621094 C 25.214844 52.527344 30.230469 47.566406 36.398438 47.566406 L 37.378906 47.566406 C 38.246094 47.566406 38.949219 48.261719 38.949219 49.121094 C 38.949219 49.976562 38.246094 50.671875 37.378906 50.671875 L 36.398438 50.671875 C 31.964844 50.671875 28.355469 54.238281 28.355469 58.621094 L 28.355469 92.132812 C 28.355469 92.546875 28.1875 92.941406 27.894531 93.230469 L 22.695312 98.371094 L 27.894531 103.511719 C 28.1875 103.804688 28.355469 104.199219 28.355469 104.609375 L 28.355469 138.121094 C 28.355469 142.507812 31.964844 146.074219 36.398438 146.074219 L 37.378906 146.074219 C 38.246094 146.074219 38.949219 146.765625 38.949219 147.625 C 38.949219 148.480469 38.246094 149.175781 37.378906 149.175781 " fill-opacity="1" fill-rule="nonzero"/></g><g fill="rgb(92.158508%, 92.158508%, 92.158508%)" fill-opacity="1"><g transform="translate(51.380641, 117.136538)"><g><path d="M 34.140625 -35.203125 L 34.140625 0 L 25.921875 0 L 25.921875 -14.875 L 11.625 -14.875 L 11.625 0 L 3.40625 0 L 3.40625 -35.203125 L 11.625 -35.203125 L 11.625 -20.484375 L 25.921875 -20.484375 L 25.921875 -35.203125 Z M 34.140625 -35.203125 "/></g></g></g><g fill="rgb(92.158508%, 92.158508%, 92.158508%)" fill-opacity="1"><g transform="translate(88.909771, 117.136538)"><g><path d="M 15.453125 -10.1875 C 13.960938 -10.125 12.734375 -9.992188 11.765625 -9.796875 C 10.796875 -9.609375 10.03125 -9.367188 9.46875 -9.078125 C 8.90625 -8.785156 8.515625 -8.453125 8.296875 -8.078125 C 8.078125 -7.710938 7.96875 -7.316406 7.96875 -6.890625 C 7.96875 -6.035156 8.203125 -5.429688 8.671875 -5.078125 C 9.140625 -4.734375 9.820312 -4.5625 10.71875 -4.5625 C 11.6875 -4.5625 12.53125 -4.726562 13.25 -5.0625 C 13.976562 -5.40625 14.710938 -5.957031 15.453125 -6.71875 Z M 1.984375 -21.578125 C 3.492188 -22.910156 5.171875 -23.898438 7.015625 -24.546875 C 8.859375 -25.203125 10.835938 -25.53125 12.953125 -25.53125 C 14.460938 -25.53125 15.820312 -25.285156 17.03125 -24.796875 C 18.25 -24.304688 19.28125 -23.617188 20.125 -22.734375 C 20.976562 -21.859375 21.628906 -20.816406 22.078125 -19.609375 C 22.523438 -18.398438 22.75 -17.082031 22.75 -15.65625 L 22.75 0 L 19.328125 0 C 18.617188 0 18.082031 -0.09375 17.71875 -0.28125 C 17.351562 -0.476562 17.050781 -0.882812 16.8125 -1.5 L 16.28125 -2.875 C 15.65625 -2.34375 15.050781 -1.875 14.46875 -1.46875 C 13.882812 -1.070312 13.28125 -0.734375 12.65625 -0.453125 C 12.039062 -0.171875 11.382812 0.0351562 10.6875 0.171875 C 9.988281 0.316406 9.210938 0.390625 8.359375 0.390625 C 7.210938 0.390625 6.171875 0.242188 5.234375 -0.046875 C 4.304688 -0.347656 3.515625 -0.789062 2.859375 -1.375 C 2.210938 -1.957031 1.710938 -2.675781 1.359375 -3.53125 C 1.003906 -4.394531 0.828125 -5.390625 0.828125 -6.515625 C 0.828125 -7.421875 1.050781 -8.335938 1.5 -9.265625 C 1.945312 -10.191406 2.722656 -11.035156 3.828125 -11.796875 C 4.941406 -12.566406 6.441406 -13.207031 8.328125 -13.71875 C 10.210938 -14.238281 12.585938 -14.53125 15.453125 -14.59375 L 15.453125 -15.65625 C 15.453125 -17.113281 15.148438 -18.171875 14.546875 -18.828125 C 13.941406 -19.484375 13.085938 -19.8125 11.984375 -19.8125 C 11.097656 -19.8125 10.375 -19.710938 9.8125 -19.515625 C 9.25 -19.328125 8.742188 -19.109375 8.296875 -18.859375 C 7.859375 -18.617188 7.425781 -18.398438 7 -18.203125 C 6.582031 -18.015625 6.082031 -17.921875 5.5 -17.921875 C 4.988281 -17.921875 4.554688 -18.050781 4.203125 -18.3125 C 3.847656 -18.570312 3.554688 -18.878906 3.328125 -19.234375 Z M 1.984375 -21.578125 "/></g></g></g><g fill="rgb(92.158508%, 92.158508%, 92.158508%)" fill-opacity="1"><g transform="translate(113.905045, 117.136538)"><g><path d="M 20.9375 -19.109375 C 20.71875 -18.835938 20.503906 -18.617188 20.296875 -18.453125 C 20.085938 -18.296875 19.785156 -18.21875 19.390625 -18.21875 C 19.023438 -18.21875 18.691406 -18.304688 18.390625 -18.484375 C 18.097656 -18.660156 17.765625 -18.851562 17.390625 -19.0625 C 17.023438 -19.28125 16.59375 -19.476562 16.09375 -19.65625 C 15.59375 -19.832031 14.972656 -19.921875 14.234375 -19.921875 C 13.304688 -19.921875 12.507812 -19.753906 11.84375 -19.421875 C 11.175781 -19.085938 10.625 -18.601562 10.1875 -17.96875 C 9.757812 -17.34375 9.4375 -16.570312 9.21875 -15.65625 C 9.007812 -14.75 8.90625 -13.722656 8.90625 -12.578125 C 8.90625 -10.179688 9.367188 -8.335938 10.296875 -7.046875 C 11.222656 -5.765625 12.5 -5.125 14.125 -5.125 C 15 -5.125 15.6875 -5.226562 16.1875 -5.4375 C 16.695312 -5.65625 17.128906 -5.898438 17.484375 -6.171875 C 17.835938 -6.441406 18.164062 -6.6875 18.46875 -6.90625 C 18.769531 -7.132812 19.144531 -7.25 19.59375 -7.25 C 20.1875 -7.25 20.632812 -7.03125 20.9375 -6.59375 L 23.125 -3.90625 C 22.34375 -3.019531 21.523438 -2.300781 20.671875 -1.75 C 19.816406 -1.195312 18.941406 -0.757812 18.046875 -0.4375 C 17.160156 -0.125 16.265625 0.0859375 15.359375 0.203125 C 14.460938 0.328125 13.585938 0.390625 12.734375 0.390625 C 11.203125 0.390625 9.738281 0.0976562 8.34375 -0.484375 C 6.945312 -1.066406 5.722656 -1.90625 4.671875 -3 C 3.617188 -4.101562 2.78125 -5.460938 2.15625 -7.078125 C 1.539062 -8.691406 1.234375 -10.523438 1.234375 -12.578125 C 1.234375 -14.390625 1.5 -16.078125 2.03125 -17.640625 C 2.570312 -19.210938 3.367188 -20.570312 4.421875 -21.71875 C 5.484375 -22.875 6.789062 -23.78125 8.34375 -24.4375 C 9.894531 -25.101562 11.695312 -25.4375 13.75 -25.4375 C 15.707031 -25.4375 17.425781 -25.117188 18.90625 -24.484375 C 20.394531 -23.859375 21.734375 -22.941406 22.921875 -21.734375 Z M 20.9375 -19.109375 "/></g></g></g><g fill="rgb(92.158508%, 92.158508%, 92.158508%)" fill-opacity="1"><g transform="translate(137.403019, 117.136538)"><g><path d="M 10.03125 -36.15625 L 10.03125 -15.890625 L 11.140625 -15.890625 C 11.609375 -15.890625 11.960938 -15.957031 12.203125 -16.09375 C 12.441406 -16.238281 12.679688 -16.46875 12.921875 -16.78125 L 17.65625 -23.84375 C 17.945312 -24.25 18.273438 -24.550781 18.640625 -24.75 C 19.015625 -24.945312 19.492188 -25.046875 20.078125 -25.046875 L 26.9375 -25.046875 L 20.453125 -16.140625 C 19.847656 -15.328125 19.125 -14.664062 18.28125 -14.15625 C 18.65625 -13.882812 18.992188 -13.566406 19.296875 -13.203125 C 19.609375 -12.835938 19.898438 -12.429688 20.171875 -11.984375 L 27.21875 0 L 20.453125 0 C 19.890625 0 19.40625 -0.09375 19 -0.28125 C 18.601562 -0.46875 18.269531 -0.789062 18 -1.25 L 13.265625 -10.125 C 13.035156 -10.519531 12.800781 -10.78125 12.5625 -10.90625 C 12.320312 -11.03125 11.957031 -11.09375 11.46875 -11.09375 L 10.03125 -11.09375 L 10.03125 0 L 2.53125 0 L 2.53125 -36.15625 Z M 10.03125 -36.15625 "/></g></g></g><g fill="rgb(92.158508%, 92.158508%, 92.158508%)" fill-opacity="1"><g transform="translate(164.37859, 117.136538)"><g><path d="M 22 -13.453125 L 18.75 -23.09375 C 18.507812 -23.707031 18.25 -24.425781 17.96875 -25.25 C 17.695312 -26.082031 17.425781 -26.984375 17.15625 -27.953125 C 16.90625 -26.960938 16.644531 -26.050781 16.375 -25.21875 C 16.101562 -24.382812 15.847656 -23.660156 15.609375 -23.046875 L 12.375 -13.453125 Z M 34.984375 0 L 28.65625 0 C 27.945312 0 27.375 -0.160156 26.9375 -0.484375 C 26.5 -0.816406 26.164062 -1.242188 25.9375 -1.765625 L 23.859375 -7.90625 L 10.484375 -7.90625 L 8.40625 -1.765625 C 8.226562 -1.316406 7.910156 -0.910156 7.453125 -0.546875 C 6.992188 -0.179688 6.425781 0 5.75 0 L -0.625 0 L 13 -35.203125 L 21.359375 -35.203125 Z M 34.984375 0 "/></g></g></g><g fill="rgb(92.158508%, 92.158508%, 92.158508%)" fill-opacity="1"><g transform="translate(198.719925, 117.136538)"><g><path d="M 17.734375 -18.328125 C 17.171875 -18.960938 16.554688 -19.40625 15.890625 -19.65625 C 15.234375 -19.90625 14.539062 -20.03125 13.8125 -20.03125 C 13.125 -20.03125 12.488281 -19.890625 11.90625 -19.609375 C 11.332031 -19.335938 10.832031 -18.898438 10.40625 -18.296875 C 9.976562 -17.691406 9.640625 -16.90625 9.390625 -15.9375 C 9.148438 -14.976562 9.03125 -13.8125 9.03125 -12.4375 C 9.03125 -11.113281 9.125 -10 9.3125 -9.09375 C 9.507812 -8.195312 9.78125 -7.472656 10.125 -6.921875 C 10.476562 -6.367188 10.894531 -5.96875 11.375 -5.71875 C 11.863281 -5.476562 12.40625 -5.359375 13 -5.359375 C 13.539062 -5.359375 14.03125 -5.410156 14.46875 -5.515625 C 14.914062 -5.617188 15.320312 -5.765625 15.6875 -5.953125 C 16.0625 -6.148438 16.414062 -6.398438 16.75 -6.703125 C 17.082031 -7.003906 17.410156 -7.347656 17.734375 -7.734375 Z M 25.21875 -36.15625 L 25.21875 0 L 20.578125 0 C 19.648438 0 19.039062 -0.414062 18.75 -1.25 L 18.171875 -3.171875 C 17.671875 -2.640625 17.144531 -2.15625 16.59375 -1.71875 C 16.050781 -1.28125 15.457031 -0.90625 14.8125 -0.59375 C 14.175781 -0.28125 13.492188 -0.0390625 12.765625 0.125 C 12.035156 0.300781 11.242188 0.390625 10.390625 0.390625 C 9.085938 0.390625 7.878906 0.0976562 6.765625 -0.484375 C 5.648438 -1.066406 4.691406 -1.90625 3.890625 -3 C 3.085938 -4.09375 2.453125 -5.429688 1.984375 -7.015625 C 1.523438 -8.597656 1.296875 -10.40625 1.296875 -12.4375 C 1.296875 -14.3125 1.550781 -16.046875 2.0625 -17.640625 C 2.582031 -19.242188 3.3125 -20.628906 4.25 -21.796875 C 5.195312 -22.960938 6.332031 -23.875 7.65625 -24.53125 C 8.976562 -25.195312 10.4375 -25.53125 12.03125 -25.53125 C 13.332031 -25.53125 14.425781 -25.34375 15.3125 -24.96875 C 16.195312 -24.601562 17.003906 -24.109375 17.734375 -23.484375 L 17.734375 -36.15625 Z M 25.21875 -36.15625 "/></g></g></g><g fill="rgb(92.158508%, 92.158508%, 92.158508%)" fill-opacity="1"><g transform="translate(226.468297, 117.136538)"><g><path d="M 18.125 -15.53125 C 18.125 -16.125 18.046875 -16.703125 17.890625 -17.265625 C 17.734375 -17.835938 17.484375 -18.34375 17.140625 -18.78125 C 16.796875 -19.226562 16.335938 -19.585938 15.765625 -19.859375 C 15.203125 -20.128906 14.519531 -20.265625 13.71875 -20.265625 C 12.300781 -20.265625 11.1875 -19.859375 10.375 -19.046875 C 9.570312 -18.234375 9.046875 -17.0625 8.796875 -15.53125 Z M 8.703125 -11.1875 C 8.941406 -9.09375 9.578125 -7.570312 10.609375 -6.625 C 11.640625 -5.6875 12.96875 -5.21875 14.59375 -5.21875 C 15.457031 -5.21875 16.203125 -5.320312 16.828125 -5.53125 C 17.460938 -5.738281 18.023438 -5.972656 18.515625 -6.234375 C 19.003906 -6.492188 19.453125 -6.726562 19.859375 -6.9375 C 20.273438 -7.144531 20.707031 -7.25 21.15625 -7.25 C 21.757812 -7.25 22.210938 -7.03125 22.515625 -6.59375 L 24.6875 -3.90625 C 23.914062 -3.019531 23.082031 -2.300781 22.1875 -1.75 C 21.289062 -1.195312 20.367188 -0.757812 19.421875 -0.4375 C 18.484375 -0.125 17.539062 0.0859375 16.59375 0.203125 C 15.65625 0.328125 14.757812 0.390625 13.90625 0.390625 C 12.15625 0.390625 10.507812 0.101562 8.96875 -0.46875 C 7.4375 -1.039062 6.09375 -1.890625 4.9375 -3.015625 C 3.789062 -4.140625 2.878906 -5.539062 2.203125 -7.21875 C 1.535156 -8.894531 1.203125 -10.84375 1.203125 -13.0625 C 1.203125 -14.738281 1.488281 -16.328125 2.0625 -17.828125 C 2.632812 -19.328125 3.457031 -20.640625 4.53125 -21.765625 C 5.601562 -22.890625 6.898438 -23.78125 8.421875 -24.4375 C 9.941406 -25.101562 11.660156 -25.4375 13.578125 -25.4375 C 15.234375 -25.4375 16.75 -25.175781 18.125 -24.65625 C 19.5 -24.144531 20.679688 -23.394531 21.671875 -22.40625 C 22.671875 -21.425781 23.445312 -20.222656 24 -18.796875 C 24.550781 -17.378906 24.828125 -15.769531 24.828125 -13.96875 C 24.828125 -13.394531 24.800781 -12.929688 24.75 -12.578125 C 24.707031 -12.222656 24.617188 -11.941406 24.484375 -11.734375 C 24.359375 -11.523438 24.1875 -11.378906 23.96875 -11.296875 C 23.757812 -11.222656 23.484375 -11.1875 23.140625 -11.1875 Z M 8.703125 -11.1875 "/></g></g></g><g fill="rgb(92.158508%, 92.158508%, 92.158508%)" fill-opacity="1"><g transform="translate(252.502022, 117.136538)"><g><path d="M 2.53125 0 L 2.53125 -25.046875 L 7.171875 -25.046875 C 8.109375 -25.046875 8.722656 -24.628906 9.015625 -23.796875 L 9.421875 -22.4375 C 9.835938 -22.875 10.269531 -23.273438 10.71875 -23.640625 C 11.175781 -24.003906 11.664062 -24.316406 12.1875 -24.578125 C 12.707031 -24.847656 13.269531 -25.054688 13.875 -25.203125 C 14.476562 -25.359375 15.144531 -25.4375 15.875 -25.4375 C 17.382812 -25.4375 18.632812 -25.046875 19.625 -24.265625 C 20.613281 -23.484375 21.367188 -22.441406 21.890625 -21.140625 C 22.304688 -21.910156 22.816406 -22.566406 23.421875 -23.109375 C 24.023438 -23.660156 24.675781 -24.101562 25.375 -24.4375 C 26.070312 -24.78125 26.8125 -25.03125 27.59375 -25.1875 C 28.375 -25.351562 29.15625 -25.4375 29.9375 -25.4375 C 31.363281 -25.4375 32.628906 -25.222656 33.734375 -24.796875 C 34.847656 -24.367188 35.78125 -23.75 36.53125 -22.9375 C 37.28125 -22.125 37.847656 -21.125 38.234375 -19.9375 C 38.617188 -18.757812 38.8125 -17.421875 38.8125 -15.921875 L 38.8125 0 L 31.328125 0 L 31.328125 -15.921875 C 31.328125 -18.515625 30.21875 -19.8125 28 -19.8125 C 26.976562 -19.8125 26.132812 -19.472656 25.46875 -18.796875 C 24.800781 -18.128906 24.46875 -17.171875 24.46875 -15.921875 L 24.46875 0 L 16.984375 0 L 16.984375 -15.921875 C 16.984375 -17.347656 16.703125 -18.351562 16.140625 -18.9375 C 15.578125 -19.519531 14.742188 -19.8125 13.640625 -19.8125 C 12.972656 -19.8125 12.335938 -19.65625 11.734375 -19.34375 C 11.128906 -19.039062 10.5625 -18.632812 10.03125 -18.125 L 10.03125 0 Z M 2.53125 0 "/></g></g></g><g fill="rgb(92.158508%, 92.158508%, 92.158508%)" fill-opacity="1"><g transform="translate(293.605367, 117.136538)"><g><path d="M 26.328125 -25.046875 L 12.953125 6.5 C 12.722656 7 12.445312 7.363281 12.125 7.59375 C 11.800781 7.832031 11.285156 7.953125 10.578125 7.953125 L 4.96875 7.953125 L 9.8125 -2.203125 L -0.1875 -25.046875 L 6.421875 -25.046875 C 7.003906 -25.046875 7.453125 -24.914062 7.765625 -24.65625 C 8.078125 -24.40625 8.304688 -24.101562 8.453125 -23.75 L 12.5625 -12.953125 C 12.945312 -11.960938 13.257812 -10.953125 13.5 -9.921875 C 13.675781 -10.441406 13.851562 -10.957031 14.03125 -11.46875 C 14.207031 -11.988281 14.394531 -12.5 14.59375 -13 L 18.3125 -23.75 C 18.457031 -24.113281 18.710938 -24.421875 19.078125 -24.671875 C 19.453125 -24.921875 19.859375 -25.046875 20.296875 -25.046875 Z M 26.328125 -25.046875 "/></g></g></g><g clip-path="url(#id2)"><path fill="rgb(92.158508%, 92.158508%, 92.158508%)" d="M 275.90625 77.453125 L 251.113281 86.636719 L 226.316406 77.453125 L 226.316406 58.160156 L 250.335938 67.058594 C 250.585938 67.148438 250.84375 67.195312 251.113281 67.195312 C 251.378906 67.195312 251.636719 67.148438 251.890625 67.058594 L 275.90625 58.160156 Z M 277.609375 52.765625 C 277.527344 52.769531 277.445312 52.777344 277.363281 52.792969 L 251.113281 62.519531 L 224.863281 52.792969 C 224.78125 52.777344 224.699219 52.769531 224.617188 52.765625 L 207.472656 46.410156 L 251.113281 30.238281 L 294.75 46.410156 Z M 277.609375 52.765625 " fill-opacity="1" fill-rule="nonzero"/></g><path fill="rgb(92.158508%, 92.158508%, 92.158508%)" d="M 212.765625 78.84375 C 212.46875 78.84375 212.183594 78.789062 211.910156 78.675781 C 211.636719 78.5625 211.394531 78.398438 211.1875 78.191406 C 210.976562 77.980469 210.816406 77.738281 210.703125 77.464844 C 210.589844 77.191406 210.53125 76.910156 210.53125 76.613281 L 210.53125 58.53125 C 210.53125 58.234375 210.589844 57.949219 210.703125 57.675781 C 210.816406 57.402344 210.976562 57.160156 211.1875 56.953125 C 211.394531 56.742188 211.636719 56.582031 211.910156 56.46875 C 212.183594 56.355469 212.46875 56.300781 212.765625 56.300781 C 213.0625 56.300781 213.347656 56.355469 213.621094 56.46875 C 213.894531 56.582031 214.136719 56.742188 214.34375 56.953125 C 214.554688 57.160156 214.714844 57.402344 214.828125 57.675781 C 214.941406 57.949219 215 58.234375 215 58.53125 L 215 76.613281 C 215 76.910156 214.941406 77.191406 214.828125 77.464844 C 214.714844 77.738281 214.554688 77.980469 214.34375 78.191406 C 214.136719 78.398438 213.894531 78.5625 213.621094 78.675781 C 213.347656 78.789062 213.0625 78.84375 212.765625 78.84375 Z M 212.765625 78.84375 " fill-opacity="1" fill-rule="nonzero"/><path fill="rgb(92.158508%, 92.158508%, 92.158508%)" d="M 212.765625 78.84375 C 212.417969 78.84375 212.070312 78.808594 211.730469 78.742188 C 211.386719 78.675781 211.058594 78.574219 210.734375 78.441406 C 210.414062 78.308594 210.105469 78.144531 209.816406 77.949219 C 209.527344 77.757812 209.261719 77.535156 209.011719 77.289062 C 208.765625 77.042969 208.546875 76.777344 208.355469 76.484375 C 208.160156 76.195312 207.996094 75.890625 207.863281 75.570312 C 207.730469 75.246094 207.628906 74.914062 207.5625 74.574219 C 207.496094 74.234375 207.460938 73.886719 207.460938 73.539062 C 207.460938 73.191406 207.496094 72.847656 207.5625 72.503906 C 207.632812 72.164062 207.734375 71.832031 207.867188 71.511719 C 208 71.1875 208.164062 70.882812 208.355469 70.59375 C 208.550781 70.304688 208.769531 70.035156 209.019531 69.789062 C 209.265625 69.542969 209.53125 69.324219 209.824219 69.132812 C 210.113281 68.9375 210.417969 68.773438 210.742188 68.640625 C 211.0625 68.507812 211.394531 68.410156 211.734375 68.339844 C 212.078125 68.273438 212.421875 68.242188 212.773438 68.242188 C 213.121094 68.242188 213.464844 68.277344 213.808594 68.34375 C 214.148438 68.414062 214.480469 68.511719 214.800781 68.648438 C 215.125 68.78125 215.429688 68.945312 215.71875 69.136719 C 216.007812 69.332031 216.277344 69.550781 216.523438 69.800781 C 216.769531 70.046875 216.988281 70.3125 217.179688 70.605469 C 217.375 70.894531 217.535156 71.199219 217.667969 71.519531 C 217.800781 71.84375 217.902344 72.175781 217.96875 72.515625 C 218.039062 72.859375 218.070312 73.203125 218.070312 73.550781 C 218.070312 73.898438 218.035156 74.242188 217.96875 74.585938 C 217.898438 74.925781 217.800781 75.257812 217.667969 75.578125 C 217.53125 75.898438 217.371094 76.207031 217.175781 76.496094 C 216.980469 76.785156 216.761719 77.050781 216.515625 77.296875 C 216.269531 77.542969 216 77.761719 215.710938 77.957031 C 215.421875 78.148438 215.117188 78.3125 214.792969 78.445312 C 214.472656 78.578125 214.140625 78.675781 213.800781 78.742188 C 213.457031 78.8125 213.113281 78.84375 212.765625 78.84375 Z M 212.765625 72.707031 C 212.535156 72.710938 212.339844 72.792969 212.179688 72.957031 C 212.015625 73.125 211.9375 73.320312 211.941406 73.550781 C 211.941406 74.46875 213.605469 74.445312 213.605469 73.550781 C 213.601562 73.320312 213.519531 73.125 213.355469 72.960938 C 213.191406 72.800781 212.996094 72.71875 212.765625 72.71875 Z M 212.765625 72.707031 " fill-opacity="1" fill-rule="nonzero"/><g clip-path="url(#id3)"><path fill="rgb(92.158508%, 92.158508%, 92.158508%)" d="M 337.167969 47.449219 L 338.148438 47.449219 C 344.316406 47.449219 349.332031 52.410156 349.332031 58.503906 L 349.332031 91.375 L 355.183594 97.15625 C 355.796875 97.761719 355.796875 98.746094 355.183594 99.351562 L 349.332031 105.132812 L 349.332031 138.003906 C 349.332031 144.101562 344.316406 149.058594 338.148438 149.058594 L 337.167969 149.058594 C 336.304688 149.058594 335.601562 148.363281 335.601562 147.507812 C 335.601562 146.648438 336.304688 145.957031 337.167969 145.957031 L 338.148438 145.957031 C 342.585938 145.957031 346.195312 142.390625 346.195312 138.003906 L 346.195312 104.492188 C 346.195312 104.082031 346.359375 103.6875 346.652344 103.394531 L 351.855469 98.253906 L 346.652344 93.113281 C 346.359375 92.824219 346.195312 92.429688 346.195312 92.015625 L 346.195312 58.503906 C 346.195312 54.121094 342.585938 50.554688 338.148438 50.554688 L 337.167969 50.554688 C 336.304688 50.554688 335.601562 49.859375 335.601562 49.003906 C 335.601562 48.144531 336.304688 47.449219 337.167969 47.449219 " fill-opacity="1" fill-rule="nonzero"/></g><g fill="rgb(92.158508%, 92.158508%, 92.158508%)" fill-opacity="1"><g transform="translate(88.339368, 69.570699)"><g><path d="M 16.515625 -16.53125 L 10.8125 -16.53125 L 10.8125 0 L 6.109375 0 L 6.109375 -16.53125 L 0.421875 -16.53125 L 0.421875 -20.25 L 16.515625 -20.25 Z M 16.515625 -16.53125 "/></g></g></g><g fill="rgb(92.158508%, 92.158508%, 92.158508%)" fill-opacity="1"><g transform="translate(105.262727, 69.570699)"><g><path d="M 5.765625 -13.140625 C 6.285156 -13.585938 6.847656 -13.945312 7.453125 -14.21875 C 8.054688 -14.5 8.78125 -14.640625 9.625 -14.640625 C 10.414062 -14.640625 11.113281 -14.5 11.71875 -14.21875 C 12.332031 -13.945312 12.847656 -13.566406 13.265625 -13.078125 C 13.679688 -12.597656 13.992188 -12.019531 14.203125 -11.34375 C 14.421875 -10.675781 14.53125 -9.945312 14.53125 -9.15625 L 14.53125 0 L 10.21875 0 L 10.21875 -9.15625 C 10.21875 -9.863281 10.054688 -10.410156 9.734375 -10.796875 C 9.410156 -11.191406 8.929688 -11.390625 8.296875 -11.390625 C 7.828125 -11.390625 7.382812 -11.289062 6.96875 -11.09375 C 6.550781 -10.894531 6.148438 -10.625 5.765625 -10.28125 L 5.765625 0 L 1.453125 0 L 1.453125 -20.8125 L 5.765625 -20.8125 Z M 5.765625 -13.140625 "/></g></g></g><g fill="rgb(92.158508%, 92.158508%, 92.158508%)" fill-opacity="1"><g transform="translate(121.102318, 69.570699)"><g><path d="M 10.421875 -8.9375 C 10.421875 -9.28125 10.375 -9.613281 10.28125 -9.9375 C 10.195312 -10.257812 10.054688 -10.546875 9.859375 -10.796875 C 9.660156 -11.054688 9.398438 -11.265625 9.078125 -11.421875 C 8.753906 -11.578125 8.359375 -11.65625 7.890625 -11.65625 C 7.078125 -11.65625 6.4375 -11.421875 5.96875 -10.953125 C 5.507812 -10.484375 5.207031 -9.8125 5.0625 -8.9375 Z M 5 -6.4375 C 5.144531 -5.226562 5.507812 -4.351562 6.09375 -3.8125 C 6.6875 -3.269531 7.453125 -3 8.390625 -3 C 8.890625 -3 9.320312 -3.054688 9.6875 -3.171875 C 10.050781 -3.296875 10.375 -3.429688 10.65625 -3.578125 C 10.9375 -3.734375 11.191406 -3.867188 11.421875 -3.984375 C 11.660156 -4.109375 11.910156 -4.171875 12.171875 -4.171875 C 12.515625 -4.171875 12.773438 -4.046875 12.953125 -3.796875 L 14.203125 -2.25 C 13.753906 -1.738281 13.273438 -1.320312 12.765625 -1 C 12.253906 -0.6875 11.726562 -0.4375 11.1875 -0.25 C 10.644531 -0.0703125 10.097656 0.046875 9.546875 0.109375 C 9.003906 0.179688 8.488281 0.21875 8 0.21875 C 6.988281 0.21875 6.039062 0.0546875 5.15625 -0.265625 C 4.28125 -0.597656 3.507812 -1.085938 2.84375 -1.734375 C 2.175781 -2.378906 1.648438 -3.179688 1.265625 -4.140625 C 0.878906 -5.109375 0.6875 -6.234375 0.6875 -7.515625 C 0.6875 -8.484375 0.851562 -9.394531 1.1875 -10.25 C 1.519531 -11.113281 1.992188 -11.867188 2.609375 -12.515625 C 3.222656 -13.171875 3.96875 -13.6875 4.84375 -14.0625 C 5.71875 -14.445312 6.707031 -14.640625 7.8125 -14.640625 C 8.769531 -14.640625 9.644531 -14.488281 10.4375 -14.1875 C 11.226562 -13.894531 11.90625 -13.460938 12.46875 -12.890625 C 13.039062 -12.328125 13.484375 -11.632812 13.796875 -10.8125 C 14.117188 -10 14.28125 -9.070312 14.28125 -8.03125 C 14.28125 -7.707031 14.265625 -7.441406 14.234375 -7.234375 C 14.210938 -7.035156 14.164062 -6.875 14.09375 -6.75 C 14.019531 -6.632812 13.921875 -6.550781 13.796875 -6.5 C 13.671875 -6.457031 13.507812 -6.4375 13.3125 -6.4375 Z M 5 -6.4375 "/></g></g></g></svg>